Coordinates
version=1
nRows=10
nColumns=40
inDegrees=yes

Units are S.I. units (second, meters, Newtons, ...)
Angles are in degrees.

endheader
time	pelvis_tilt	pelvis_list	pelvis_rotation	pelvis_tx	pelvis_ty	pelvis_tz	hip_flexion_r	hip_adduction_r	hip_rotation_r	knee_angle_r	knee_angle_r_beta	ankle_angle_r	subtalar_angle_r	mtp_angle_r	hip_flexion_l	hip_adduction_l	hip_rotation_l	knee_angle_l	knee_angle_l_beta	ankle_angle_l	subtalar_angle_l	mtp_angle_l	lumbar_extension	lumbar_bending	lumbar_rotation	arm_flex_r	arm_add_r	arm_rot_r	elbow_flex_r	pro_sup_r	wrist_flex_r	wrist_dev_r	arm_flex_l	arm_add_l	arm_rot_l	elbow_flex_l	pro_sup_l	wrist_flex_l	wrist_dev_l
     48.31250000	     -2.49015709	     -4.35335235	     -0.10636133	      1.02449659	      0.93489599	      0.42183430	     31.16073126	     -5.99398757	     -5.48741271	     60.89531592	     60.89531592	     -0.49325542	    -17.99025909	      5.75812886	     10.08129864	     -4.45675905	     -6.79500122	     20.46806748	     20.46806748	     14.70508721	    -11.71093933	      1.25856340	    -11.26490493	      5.81297213	      0.61799324	     -1.46995026	    -14.06204842	     -8.15474837	     25.37794156	     46.86177748	      0.00000000	      0.00000000	     17.30556938	    -16.20568180	     -1.63720388	     50.46507052	     46.26423493	      0.00000000	      0.00000000
     48.32585714	     -2.72573545	     -4.37314275	     -0.53402642	      1.02399932	      0.93484382	      0.42229563	     31.54553663	     -5.72085469	     -5.76081272	     58.25085691	     58.25085691	      0.20645753	    -17.77573228	      5.84527444	      9.71877257	     -4.49758871	     -7.12753665	     20.08018020	     20.08018020	     14.84091447	    -11.71067818	      1.24685444	    -11.12415969	      5.81044465	      0.38685590	     -2.77841358	    -13.88809723	     -8.17650648	     25.04897916	     46.86275437	      0.00000000	      0.00000000	     17.95303067	    -16.73463039	     -1.88209632	     51.06700649	     46.30192120	      0.00000000	      0.00000000
     48.33921429	     -2.72782675	     -4.48506986	     -0.99576538	      1.02379345	      0.93523688	      0.42293217	     31.41868846	     -5.28323319	     -6.06390272	     55.07634808	     55.07634808	      0.77947765	    -17.43712063	      5.81491103	      8.89869591	     -4.63858800	     -7.59112395	     19.36527233	     19.36527233	     14.96002195	    -11.46884428	      1.15583478	    -11.29392179	      5.92256808	      0.75742530	     -4.35903564	    -13.86203758	     -8.25940889	     24.94569006	     46.85331956	      0.00000000	      0.00000000	     18.59018674	    -16.71844759	     -2.20538606	     52.59059640	     46.36091881	      0.00000000	      0.00000000
     48.35257143	     -2.86322374	     -4.44591620	     -1.49688202	      1.02349169	      0.93514825	      0.42377189	     31.37056162	     -4.96680390	     -6.29766880	     51.67085700	     51.67085700	      1.04577515	    -16.96882692	      4.83582344	      8.30123839	     -4.66385282	     -8.25677731	     18.79388722	     18.79388722	     14.96808818	    -11.11260286	      0.57218742	    -11.38096839	      5.81626468	      1.04051956	     -6.20184105	    -13.72014597	     -8.58328411	     25.94887480	     46.80084554	      0.00000000	      0.00000000	     18.76689833	    -16.85034638	     -2.89179467	     55.25912479	     46.47458485	      0.00000000	      0.00000000
     48.36592857	     -3.07952792	     -4.51980844	     -1.93075286	      1.02315716	      0.93489263	      0.42468124	     31.24671274	     -4.53128145	     -6.65677971	     47.96787614	     47.96787614	      1.50753471	    -16.12798909	      4.72948626	      7.88796742	     -4.77795552	     -8.59127410	     18.38445616	     18.38445616	     15.09838971	    -11.11402850	      0.45411939	    -11.26067992	      5.88646462	      0.89716784	     -7.21655379	    -13.60794037	     -8.62904270	     25.85186771	     46.79472867	      0.00000000	      0.00000000	     19.22262204	    -17.16029649	     -3.16459195	     55.98917163	     46.51625764	      0.00000000	      0.00000000
     48.37928571	     -3.32799750	     -4.52790258	     -2.37018224	      1.02281980	      0.93449611	      0.42575851	     31.04267762	     -4.11021540	     -6.96092604	     44.05714055	     44.05714055	      1.95482370	    -14.94673473	      4.56680638	      7.48431242	     -4.83275926	     -9.01995132	     17.92475593	     17.92475593	     15.21618092	    -11.00605416	      0.29861787	    -11.14784993	      5.89471989	      0.96314003	     -8.23138397	    -13.41165864	     -8.66712425	     25.73127137	     46.78946738	      0.00000000	      0.00000000	     19.71791156	    -17.36692367	     -3.46964940	     56.90928217	     46.56219444	      0.00000000	      0.00000000
     48.39264286	     -3.39393504	     -4.45135837	     -2.83566578	      1.02277469	      0.93411487	      0.42691541	     30.36424459	     -3.78361168	     -7.35372669	     39.66966052	     39.66966052	      1.17150284	    -13.72309873	      0.84012141	      6.80501746	     -4.83483845	     -9.76516908	     17.35855822	     17.35855822	     15.01448429	    -10.59255428	     -1.02614370	    -11.31938060	      5.75713587	      0.91608265	     -9.53725767	    -13.28780173	     -9.20880218	     27.07356320	     46.72981888	      0.00000000	      0.00000000	     19.33571728	    -17.42641803	     -4.93999060	     60.06476511	     46.76153432	      0.00000000	      0.00000000
     48.40600000	     -3.61760206	     -4.46019480	     -3.20609210	      1.02263772	      0.93352771	      0.42819762	     29.83710785	     -3.30885889	     -7.71799761	     35.42178690	     35.42178690	      1.53333190	    -11.81661609	      0.92200391	      6.40478569	     -4.89026088	    -10.09568222	     16.97258360	     16.97258360	     15.18396434	    -10.52934032	     -1.16495266	    -11.19224758	      5.76114300	      0.99019903	    -10.22789138	    -13.09105161	     -9.18468534	     26.77615342	     46.73025718	      0.00000000	      0.00000000	     19.87163462	    -17.50470880	     -5.12255024	     60.62890379	     46.79366912	      0.00000000	      0.00000000
     48.41935714	     -3.72769378	     -4.40299859	     -3.55605542	      1.02276203	      0.93294961	      0.42955483	     29.06530521	     -2.93495342	     -8.20744772	     31.17879637	     31.17879637	      1.85091195	     -9.33895315	      0.91801112	      5.84391143	     -4.88769389	    -10.55680930	     16.54645686	     16.54645686	     15.35238473	    -10.23941954	     -1.47825089	    -11.19509442	      5.68384017	      1.15491615	    -10.87782204	    -12.91839754	     -9.22017013	     26.58011707	     46.73050335	      0.00000000	      0.00000000	     20.33002514	    -17.46646255	     -5.40418892	     61.48861379	     46.83814476	      0.00000000	      0.00000000
     48.43271429	     -3.88497864	     -4.34018037	     -3.85408662	      1.02304174	      0.93219014	      0.43098516	     28.26613980	     -2.53438925	     -8.70470567	     27.04975293	     27.04975293	      2.00729411	     -6.83780035	      1.20512677	      5.35089776	     -4.88714665	    -10.99344649	     16.15824447	     16.15824447	     15.52498654	     -9.94628517	     -1.84472139	    -11.09020185	      5.63121422	      1.21842149	    -11.39160487	    -12.72275654	     -9.28484199	     26.49071784	     46.73017534	      0.00000000	      0.00000000	     20.65021402	    -17.42591680	     -5.68557962	     62.30387441	     46.87991918	      0.00000000	      0.00000000
